<?xml version="1.0" encoding="utf-8"?>
<!-- Generator: Adobe Illustrator 26.0.3, SVG Export Plug-In . SVG Version: 6.00 Build 0)  -->
<svg version="1.1" id="Calque_1" xmlns="http://www.w3.org/2000/svg" xmlns:xlink="http://www.w3.org/1999/xlink" x="0px" y="0px"
	 viewBox="0 0 1000 1000" style="enable-background:new 0 0 1000 1000;" xml:space="preserve">
<style type="text/css">
	.st0{fill:none;stroke:#E81260;stroke-width:7.3268;stroke-miterlimit:10;}
</style>
<path class="st0" d="M322.2,243.1c3.1-10.5,4.1-21.1,9.3-31.1c4.2-8.2,10-15.6,17.2-21.4c15.1-12.1,34.7-15.8,53.6-13.3
	c4.2,0.6,8.3,1.4,12.4,2.5c42.3,11.1,68.8,38.4,79.1,81c1.6,6.5,3.3,13,5,19.4c0.6,2.4,4,2.4,4.7,0c2.1-7.7,4.3-15.4,6.2-23.2
	c11.5-46.6,52.7-79.5,100-79.6c37.5-0.1,60.5,18.5,68.6,55.6c1.2,5.5,2.5,10.9,4.9,21.5c0.1,0.5,0.9,0.6,1,0
	c15.9-53.6,49.2-77.9,100.4-76.8c34.9,0.7,44.2,26.1,50.5,56.3c0.2,0.7,1.1,0.9,1.5,0.3c8.1-11.3,13.2-21.3,21.2-28.1
	c12.1-10.3,25.3-21,39.9-26.3c32.8-11.9,60.8,2.7,64.2,37.1c3.8,38.6,1.1,77.9-1.5,116.8c-0.5,8.1-11.6,18.5-20.3,22.6
	c-29.9,14.1-62,17.6-94.9,12.8c-5.2-0.7-11.9-0.3-16,2.4c-34.6,22.8-93.4,31.6-135.6,21.2c-7.3-1.8-15.1-0.9-21.5,3.1
	c-37.9,23.5-122.6,28.4-160.6,9.4c-5.8-2.9-12.4-3.3-18.4-0.7c-44,19.1-128.7,14.6-162.5-8.9c-5.3-3.7-11.9-5-18.1-3.2
	c-39,11-78.7,6.3-115.1-9.3c-23.6-10.1-45.1-12.4-69.4-12.9c-19.8-0.4-39.7-6.2-59.2-10.9C50.1,355,39.6,341.8,39,323
	c-1.1-33-2.8-66.1-0.4-98.9c3-40.2,32.9-56.9,71-42.8c18.7,6.9,30,16,46.1,39.3c4.2,6.1,13.6,4.7,15.8-2.4l0-0.2
	c9.6-31.1,22.3-41.3,54.2-40.1c19.6,0.7,39.5,6.4,55.7,17.6c9.8,6.8,17.9,16.3,23.6,26.8c4.5,8.3,4.1,20.6,8.6,28.5
	c4.6,8,5.8,0.4,7.6-5.2C321.7,244.8,322,244,322.2,243.1z"/>
<path class="st0" d="M684.5,757.5c-3.1,10.5-4.1,21.1-9.3,31.1c-4.2,8.2-10,15.6-17.2,21.4c-15.1,12.1-34.7,15.8-53.6,13.3
	c-4.2-0.6-8.3-1.4-12.4-2.5c-42.3-11.1-68.8-38.4-79.1-81c-1.6-6.5-3.3-13-5-19.4c-0.6-2.4-4-2.4-4.7,0c-2.1,7.7-4.3,15.4-6.2,23.2
	c-11.5,46.6-52.7,79.5-100,79.6c-37.5,0.1-60.5-18.5-68.6-55.6c-1.2-5.5-2.5-10.9-4.9-21.5c-0.1-0.5-0.9-0.6-1,0
	c-15.9,53.6-49.2,77.9-100.4,76.8c-34.9-0.7-44.2-26.1-50.5-56.3c-0.2-0.7-1.1-0.9-1.5-0.3c-8.1,11.3-13.2,21.3-21.2,28.1
	c-12.1,10.3-25.3,21-39.9,26.3c-32.8,11.9-60.8-2.7-64.2-37.1c-3.8-38.6-1.1-77.9,1.5-116.8c0.5-8.1,11.6-18.5,20.3-22.6
	c29.9-14.1,62-17.6,94.9-12.8c5.2,0.7,11.9,0.3,16-2.4c34.6-22.8,93.4-31.6,135.6-21.2c7.3,1.8,15.1,0.9,21.5-3.1
	c37.9-23.5,122.6-28.4,160.6-9.4c5.8,2.9,12.4,3.3,18.4,0.7c44-19.1,128.7-14.6,162.5,8.9c5.3,3.7,11.9,5,18.1,3.2
	c39-11,78.7-6.3,115.1,9.3c23.6,10.1,45.1,12.4,69.4,12.9c19.8,0.4,39.7,6.2,59.2,10.9c18.6,4.4,29,17.6,29.7,36.4
	c1.1,33,2.8,66.1,0.4,98.9c-3,40.2-32.9,56.9-71,42.8c-18.7-6.9-30-16-46.1-39.3c-4.2-6.1-13.6-4.7-15.8,2.4l0,0.2
	c-9.6,31.1-22.3,41.3-54.2,40.1c-19.6-0.7-39.5-6.4-55.7-17.6c-9.8-6.8-17.9-16.3-23.6-26.8c-4.5-8.3-4.1-20.6-8.6-28.5
	c-4.6-8-5.8-0.4-7.6,5.2C685,755.8,684.8,756.7,684.5,757.5z"/>
</svg>
