<?xml version="1.0" encoding="utf-8"?>
<!-- Generator: Adobe Illustrator 26.2.1, SVG Export Plug-In . SVG Version: 6.00 Build 0)  -->
<svg version="1.1" id="Calque_1" xmlns="http://www.w3.org/2000/svg" xmlns:xlink="http://www.w3.org/1999/xlink" x="0px" y="0px"
	 viewBox="0 0 1000 1000" style="enable-background:new 0 0 1000 1000;" xml:space="preserve">
<style type="text/css">
	.st0{fill:none;stroke:#E81260;stroke-width:8;stroke-miterlimit:10;}
</style>
<path class="st0" d="M19.9,596.2l27.3-35.6c0.8-1.1,1.9-1.8,3.2-2.2c37-11,587.2-171.9,797.1-110.3c3.3,1,5.2,4.4,4.3,7.7l-19,71
	c-0.6,2.2-2.3,3.9-4.4,4.5l-116.5,32.3c-15.7,4.3-32.1,5-48.1,2.1c-36.6-6.7-110.5-16.5-178.4-3.2c-2.6,0.5-5.2,0.9-7.8,1.2
	l-452,42.7C20,606.9,16.6,600.6,19.9,596.2z"/>
<path class="st0" d="M345.3,576.1v-19.8c0-6.1,4.1-11.4,10.1-12.9c40.9-10.1,196.5-45.8,277-26.6c5.9,1.4,11.6,3.7,17,6.6
	c12.1,6.4,43.9,19,89.2,6.8l57.9-7.5c11.8-1.5,21.5-10.2,24.3-21.7l13.8-56.4"/>
<path class="st0" d="M849.7,463.9l14.4,14.4c2.3,2.3,3,5.6,2,8.6l-4.7,13.3c-0.9,2.6-3.1,4.6-5.7,5.3l-18.4,4.9"/>
<path class="st0" d="M984,517.4c0,0-57.4-40.5-116.2-35.4"/>
<path class="st0" d="M984,536.3c0,0-78-54.2-121.8-38.4"/>
</svg>
