<?xml version="1.0" encoding="utf-8"?>
<!-- Generator: Adobe Illustrator 26.0.3, SVG Export Plug-In . SVG Version: 6.00 Build 0)  -->
<svg version="1.1" id="Calque_1" xmlns="http://www.w3.org/2000/svg" xmlns:xlink="http://www.w3.org/1999/xlink" x="0px" y="0px"
	 viewBox="0 0 1000 1000" style="enable-background:new 0 0 1000 1000;" xml:space="preserve">
<style type="text/css">
	.st0{fill:none;stroke:#E81260;stroke-width:7.3268;stroke-miterlimit:10;}
</style>
<g>
	<path class="st0" d="M354.9,492.2V347.5c0,0-13.5-126,108.3-126H489h22.8h25.8c121.8,0,108.3,126,108.3,126v144.7h76.3
		c82-64.9,117.6-165.3,114.2-267.7c-1.2-36.5-4.3-80.4-21.6-113.1C790,64.6,737.4,40.5,686.6,35.9c-77.8-7.1-147.4,50.7-225.9,27.2
		C409,47.7,370.3,30.8,314.2,35.9c-50.8,4.6-103.4,28.7-128.2,75.5c-17.3,32.7-20.4,76.6-21.6,113.1
		c-3.4,102.4,32.2,202.8,114.2,267.7H354.9z"/>
	<path class="st0" d="M598.5,546.3c0,0,0-135.1,0-135.1c0-34.3-4.2-75.3-28.9-101.7c-19.6-20.9-52.8-22.7-79.7-21.2
		c-41.4,2.2-65.5,28.4-75.2,67.4c-4.4,18-5.8,36.8-5.8,55.3c0,0,0,135.1,0,135.1H257.4c0,0-64.9,203.3,56.9,392.8
		c0,0,67.7,81.2,81.2-27.1c8.6-74.5,22.8-153.2,53.4-221.9c10.7-23.9,29.2-64,61.8-58.1c22.5,4.1,36.8,34.5,45.6,53.3
		c10.9,23.3,18.9,47.9,25.8,72.7c12.2,43.9,20.8,88.8,27.2,133.9c1,6.8,1.9,13.6,2.7,20.4c13.5,108.3,81.2,27.1,81.2,27.1
		c121.8-189.5,56.9-392.8,56.9-392.8H598.5z"/>
</g>
</svg>
