<?xml version="1.0" encoding="utf-8"?>
<!-- Generator: Adobe Illustrator 26.0.3, SVG Export Plug-In . SVG Version: 6.00 Build 0)  -->
<svg version="1.1" id="Calque_1" xmlns="http://www.w3.org/2000/svg" xmlns:xlink="http://www.w3.org/1999/xlink" x="0px" y="0px"
	 viewBox="0 0 1000 1000" style="enable-background:new 0 0 1000 1000;" xml:space="preserve">
<style type="text/css">
	.st0{fill:none;stroke:#E81260;stroke-width:7.9039;stroke-miterlimit:10;}
</style>
<path class="st0" d="M72.6,844.2c0.4-4,0.8-8.1,1.2-12.1c2-19.8,13.6-17.1,29.9-22c34.9-10.3,70.8-17,106.7-22.6
	c115.7-18.1,234.5-31.5,351.7-32.3c16.6-0.1,33.3-1.8,49.9-0.6c11.6,0.8,39.7,3.3,44.5,16.7c1,2.8,1,5.9,1,8.9
	c0,44.2,0.9,88.7-0.7,132.9c-1,29.4-2.2,53.8-37.3,55.2c-48.3,2.2-96.8,3.5-145.1,4.4c-89,1.7-178.4,2.3-267.3-3.3
	c-23.8-1.5-47.6-3.5-71.1-6.9c-17.2-2.5-38.1-1.7-53.1-11.8c-15.5-10.5-15.9-32.6-15-49.3C69.1,882.4,70.7,863.3,72.6,844.2z"/>
<path class="st0" d="M453,967c0-20.4-1.3-40.8-1.9-61.2c-0.5-19.4-3.4-44.5,2.6-63.2c8.1-25.2,44.5-16.1,64.4-16.1
	c31.6,0,63.3,0,94.9,0c27.2,0,29.7,29,29.4,50c-0.4,30.3-1.3,60.2-0.8,90.6"/>
<path class="st0" d="M153.9,797.7c0,0-26.6-34.1,76.3-251.4c0,0,75.3-198,23-217.3H75.8c0,0-34.8,0-34.8-44.1v-33.8l195.7-98.5
	c0,0,57.9-45.3,176.4-47.4c0,0,107.6,0.5,181.4-7.8c29.7-3.3,53.9-8.1,63.5-14.8c0,0,163-92.5,212.6-4.3c0,0,27.6-2.8,46.8,38.6
	c0,0,57.9,11,30.3,74.4c0,0-60.6,113-124,35.8l-68.9-68.9c0,0-83.4,31.5-96.8,40.6c0,0-5.1,39.4-109.8,69.7
	c0,0-95.1,17.9-58.6,183.9c0,0,60,247.5,51,303.2"/>
<path class="st0" d="M574.2,148.5c-50.4,18.1-101.2,19-153.4,26.3c-34,4.8-67.6,13.8-100.7,22.9c-82.9,22.7-165.5,50.2-243.5,86.6
	c-11.4,5.3-22.7,10.9-33.8,16.8"/>
<path class="st0" d="M594.4,97.4c-39.6,45.2,1.6,149.8,63.5,101.3"/>
<path class="st0" d="M41,263.9l26.2-13.4c0,0,16.5-2.8,8.3,22l-32.5,17.7"/>
<path class="st0" d="M636.7,211.3c-31.7,27.6-74.9,33.2-112.1,50c-30.4,13.7-61.5,40-75.7,70.5"/>
<path class="st0" d="M870.4,78.3c0,0-36.9-2.5-54.9,20.5c-2.2,2.8-5.7,4.3-9.2,4.3h-5.6c-2.7,0-5.4,1.1-7.3,3
	c-6.1,6-18.5,21.5-21.7,49.6c-0.3,3.1,0.6,6.1,2.7,8.4c3.7,4.1,9.3,12,8.7,22.6"/>
<path class="st0" d="M436.4,457.2c0,0,13.8,96.5,24.8,143.3c0,0,32.5,108.1,17.6,157.4"/>
<path class="st0" d="M375.4,391.3c2.3-20.8,15.8-39.5,33.8-49.9c15.9-9.2,44.5-14.6,59.3-0.2c12.3,11.9,8.7,35.3,5.8,49.9
	c-1,4.9-1.3,9.9-1.3,15c-0.1,14.4-1.2,28.9-11.4,40c-9.5,10.4-23.4,12.5-36.7,9.6c-20.1-4.4-37.3-20.8-45.3-39.3
	C375.7,407.5,374.5,399.2,375.4,391.3z"/>
<ellipse class="st0" cx="443.3" cy="393.8" rx="13.8" ry="15.2"/>
<rect x="567.3" y="855.4" class="st0" width="42.9" height="61.9"/>
<ellipse class="st0" cx="588" cy="881.6" rx="12.4" ry="15.2"/>
<path class="st0" d="M889.7,144.4h35.5c0,0,16.9,0,8.6,16.5L909,218.8c0,0-2.8,13.8-22,13.8h-36.9c0,0-12.7,0-7.2-19.3l22-49.6
	C864.9,163.7,873.2,144.4,889.7,144.4z"/>
</svg>
