<?xml version="1.0" encoding="utf-8"?>
<!-- Generator: Adobe Illustrator 26.0.3, SVG Export Plug-In . SVG Version: 6.00 Build 0)  -->
<svg version="1.1" id="Calque_1" xmlns="http://www.w3.org/2000/svg" xmlns:xlink="http://www.w3.org/1999/xlink" x="0px" y="0px"
	 viewBox="0 0 1000 1000" style="enable-background:new 0 0 1000 1000;" xml:space="preserve">
<style type="text/css">
	.st0{fill:none;stroke:#E81260;stroke-width:7.3268;stroke-miterlimit:10;}
</style>
<path class="st0" d="M690.9,365.2C694.2,425.4,919.3,501,956.1,521s21.3,45.9,21.3,45.9c-100.8,7.5-224.6-44.3-265.2-62.9
	c-7.4-3.4-15.6-4-23.5-2.3c-7.2,1.6-15.7,1.6-22.8,1c-13.6-1-26,7.9-29.4,21.1c-10.7,41.8,15.2,117.6,15.2,117.6
	c43.5,100.3,157.2-36.8,157.2-36.8c30.1-50.2,30.1,16.7,30.1,16.7s13.4,120.4-53.5,217.4s-217.4-6.7-237.4-43.5
	c-20.1-36.8-50.2-33.4-50.2-33.4c-26.8,16.7-140.5-60.2-140.5-60.2c-40.1-23.4-93.6-46.8-113.7-76.9s-53.5-13.4-53.5-13.4
	S110,631.4,49.8,521s30.1-240.8,66.9-260.9s26.8,23.4,26.8,23.4s-13.4,113.7,56.9,87c0,0,70.2-23.4,90.3-83.6"/>
<path class="st0" d="M327.4,226.7c0,0-20.1-26.8-73.6-20.1c-10.1,1.3-39.7,0.5-40.7-14c-0.9-13.6,25-16.3,34.1-17.8
	c57.3-9.1,116.6,9.2,167.1,35.1"/>
<path class="st0" d="M434.4,470.9c0,0-20.1-180.6,50.2-167.2c0,0,43.5,6.7,66.9-6.7c0,0,107-33.4,133.8,50.2
	c0,0,23.4,36.8-50.2,76.9c-35.3,19.3-60.3,54.9-82.3,87.5c-20.3,30-50.7,57.8-90.6,45.9C423.4,545.9,432.6,501.9,434.4,470.9z"/>
<path class="st0" d="M505.1,317.2c37.3,9.3,46.3,42.6,74.6,61.8c18.7,12.6,53.6,22.3,63.8-5.1"/>
<path class="st0" d="M431.7,391.5c0,0-51.4,96.5-118,76.2s-16.4-200.9-16.4-200.9s0-66.9,97-26.8c0,0,37.2,13.5,45.4,50.2"/>
<path class="st0" d="M368.2,228.7c0,0,103-55.5,156.5,11.4c0,0,17.8,35.2,10.6,62.7"/>
</svg>
